<svg width="24" height="24" viewBox="0 0 24 24" fill="none" xmlns="http://www.w3.org/2000/svg">
<path d="M9.23077 0.923077V4C9.23077 4.24482 9.13352 4.4796 8.96041 4.65271C8.7873 4.82582 8.55251 4.92308 8.30769 4.92308C8.06288 4.92308 7.82809 4.82582 7.65498 4.65271C7.48187 4.4796 7.38461 4.24482 7.38461 4V0.923077C7.38461 0.678262 7.48187 0.443473 7.65498 0.270363C7.82809 0.0972525 8.06288 0 8.30769 0C8.55251 0 8.7873 0.0972525 8.96041 0.270363C9.13352 0.443473 9.23077 0.678262 9.23077 0.923077Z" fill="#66578F" fill-opacity="0.4"/>
<path d="M23.5815 4.67692C23.5241 3.88433 23.1824 3.13912 22.6194 2.57833C22.0563 2.01754 21.3097 1.67888 20.5169 1.62462C19.7169 1.56308 18.8062 1.50154 17.8462 1.45231V4C17.8462 4.57124 17.6192 5.11907 17.2153 5.523C16.8114 5.92692 16.2635 6.15385 15.6923 6.15385C15.1211 6.15385 14.5732 5.92692 14.1693 5.523C13.7654 5.11907 13.5385 4.57124 13.5385 4V1.23077H10.4615V4C10.4615 4.57124 10.2346 5.11907 9.83069 5.523C9.42677 5.92692 8.87893 6.15385 8.30769 6.15385C7.73646 6.15385 7.18862 5.92692 6.78469 5.523C6.38077 5.11907 6.15385 4.57124 6.15385 4V1.45231C5.19385 1.45231 4.28308 1.56308 3.47077 1.62462C2.67883 1.68138 1.93367 2.02085 1.37112 2.58114C0.808571 3.14143 0.466105 3.88522 0.406154 4.67692C0.221538 6.95385 0 10.1785 0 12.6154C0 15.0523 0.221538 18.2892 0.406154 20.5662C0.466434 21.3566 0.809345 22.0988 1.37212 22.6571C1.9349 23.2153 2.6799 23.5523 3.47077 23.6062C5.93231 23.7908 9.40308 24 12 24C14.5969 24 18.0554 23.7908 20.5169 23.6062C21.3087 23.5548 22.0551 23.2187 22.6184 22.6599C23.1817 22.1011 23.5238 21.3575 23.5815 20.5662C23.7785 18.2892 24 15.0646 24 12.6154C24 10.1662 23.7785 6.95385 23.5815 4.67692ZM7.07692 16.9846C6.7505 16.9846 6.43745 16.8549 6.20664 16.6241C5.97582 16.3933 5.84615 16.0803 5.84615 15.7538C5.84615 15.4274 5.97582 15.1144 6.20664 14.8836C6.43745 14.6527 6.7505 14.5231 7.07692 14.5231C7.40334 14.5231 7.71639 14.6527 7.94721 14.8836C8.17802 15.1144 8.30769 15.4274 8.30769 15.7538C8.30769 16.0803 8.17802 16.3933 7.94721 16.6241C7.71639 16.8549 7.40334 16.9846 7.07692 16.9846ZM7.07692 12.0615C6.7505 12.0615 6.43745 11.9319 6.20664 11.7011C5.97582 11.4702 5.84615 11.1572 5.84615 10.8308C5.84615 10.5043 5.97582 10.1913 6.20664 9.96048C6.43745 9.72967 6.7505 9.6 7.07692 9.6C7.40334 9.6 7.71639 9.72967 7.94721 9.96048C8.17802 10.1913 8.30769 10.5043 8.30769 10.8308C8.30769 11.1572 8.17802 11.4702 7.94721 11.7011C7.71639 11.9319 7.40334 12.0615 7.07692 12.0615ZM12 16.9846C11.6736 16.9846 11.3605 16.8549 11.1297 16.6241C10.8989 16.3933 10.7692 16.0803 10.7692 15.7538C10.7692 15.4274 10.8989 15.1144 11.1297 14.8836C11.3605 14.6527 11.6736 14.5231 12 14.5231C12.3264 14.5231 12.6395 14.6527 12.8703 14.8836C13.1011 15.1144 13.2308 15.4274 13.2308 15.7538C13.2308 16.0803 13.1011 16.3933 12.8703 16.6241C12.6395 16.8549 12.3264 16.9846 12 16.9846ZM12 12.0615C11.6736 12.0615 11.3605 11.9319 11.1297 11.7011C10.8989 11.4702 10.7692 11.1572 10.7692 10.8308C10.7692 10.5043 10.8989 10.1913 11.1297 9.96048C11.3605 9.72967 11.6736 9.6 12 9.6C12.3264 9.6 12.6395 9.72967 12.8703 9.96048C13.1011 10.1913 13.2308 10.5043 13.2308 10.8308C13.2308 11.1572 13.1011 11.4702 12.8703 11.7011C12.6395 11.9319 12.3264 12.0615 12 12.0615ZM16.9231 12.0615C16.5967 12.0615 16.2836 11.9319 16.0528 11.7011C15.822 11.4702 15.6923 11.1572 15.6923 10.8308C15.6923 10.5043 15.822 10.1913 16.0528 9.96048C16.2836 9.72967 16.5967 9.6 16.9231 9.6C17.2495 9.6 17.5625 9.72967 17.7934 9.96048C18.0242 10.1913 18.1538 10.5043 18.1538 10.8308C18.1538 11.1572 18.0242 11.4702 17.7934 11.7011C17.5625 11.9319 17.2495 12.0615 16.9231 12.0615Z" fill="#66578F" fill-opacity="0.4"/>
<path d="M16.6154 0.923077V4C16.6154 4.24482 16.5181 4.4796 16.345 4.65271C16.1719 4.82582 15.9371 4.92308 15.6923 4.92308C15.4475 4.92308 15.2127 4.82582 15.0396 4.65271C14.8665 4.4796 14.7692 4.24482 14.7692 4V0.923077C14.7692 0.678262 14.8665 0.443473 15.0396 0.270363C15.2127 0.0972525 15.4475 0 15.6923 0C15.9371 0 16.1719 0.0972525 16.345 0.270363C16.5181 0.443473 16.6154 0.678262 16.6154 0.923077Z" fill="#66578F" fill-opacity="0.4"/>
</svg>
