<svg width="24" height="24" viewBox="0 0 24 24" fill="none" xmlns="http://www.w3.org/2000/svg">
<path d="M6.85714 3.42857V20.5714C6.85714 22.4082 5.38776 24 3.42857 24C1.46939 24 0 22.4082 0 20.5714V3.42857C0 1.59184 1.46939 0 3.42857 0C5.38776 0 6.85714 1.59184 6.85714 3.42857Z" fill="#66578F" fill-opacity="0.4"/>
<path d="M15.4286 9.55102V20.5714C15.4286 22.4082 13.9592 24 12 24C10.0408 24 8.57143 22.4082 8.57143 20.5714V9.55102C8.57143 7.71429 10.0408 6.12245 12 6.12245C13.9592 6.12245 15.4286 7.71429 15.4286 9.55102Z" fill="#66578F" fill-opacity="0.4"/>
<path d="M24 3.42857V20.5714C24 22.4082 22.5306 24 20.5714 24C18.6122 24 17.1429 22.5306 17.1429 20.5714V3.42857C17.1429 1.59184 18.6122 0 20.5714 0C22.5306 0 24 1.59184 24 3.42857Z" fill="#66578F" fill-opacity="0.4"/>
</svg>
